<svg width="15" height="16" viewBox="0 0 15 16" fill="none" xmlns="http://www.w3.org/2000/svg">
<path d="M8.29688 13.1426C7.89844 13.1426 7.60547 12.8496 7.60547 12.457V10.2188H7.43555C5.16797 10.2188 3.73242 10.793 2.71289 12.709C2.50781 13.084 2.23828 13.1426 1.99219 13.1426C1.67578 13.1426 1.38867 12.8613 1.38867 12.3574C1.38867 8.02734 3.22266 5.32617 7.43555 5.32617H7.60547V3.11133C7.60547 2.71875 7.89844 2.39648 8.30859 2.39648C8.5957 2.39648 8.78906 2.51953 9.09961 2.8125L13.7227 7.13672C13.9512 7.35352 14.0215 7.57031 14.0215 7.76953C14.0215 7.96289 13.9453 8.18555 13.7227 8.39648L9.09961 12.7617C8.81836 13.0254 8.58398 13.1426 8.29688 13.1426Z" fill="url(#paint0_linear_257_942)"/>
<defs>
<linearGradient id="paint0_linear_257_942" x1="7.5" y1="0" x2="7.5" y2="16" gradientUnits="userSpaceOnUse">
<stop stop-color="#3076FF"/>
<stop offset="1" stop-color="#1D49E5"/>
</linearGradient>
</defs>
</svg>
