<svg width="16" height="16" viewBox="0 0 16 16" fill="none" xmlns="http://www.w3.org/2000/svg">
<path d="M7.78174 15.1826C3.70215 15.1826 0.311035 11.7915 0.311035 7.71191C0.311035 3.625 3.69482 0.241211 7.77441 0.241211C11.8613 0.241211 15.2524 3.625 15.2524 7.71191C15.2524 11.7915 11.8687 15.1826 7.78174 15.1826ZM7.78906 3.8667C7.45947 3.8667 7.21777 4.10107 7.21777 4.43799V8.19531L7.28369 9.79932L6.5293 8.89111L5.63574 7.99023C5.5332 7.88037 5.38672 7.82178 5.23291 7.82178C4.91797 7.82178 4.68359 8.05615 4.68359 8.37109C4.68359 8.53223 4.72754 8.66406 4.83008 8.7666L7.34961 11.2715C7.50342 11.4253 7.62793 11.4912 7.78906 11.4912C7.95752 11.4912 8.08936 11.418 8.23584 11.2715L10.748 8.7666C10.8506 8.66406 10.9092 8.53223 10.9092 8.37109C10.9092 8.05615 10.6675 7.82178 10.3525 7.82178C10.1914 7.82178 10.0522 7.87305 9.94971 7.99023L9.06348 8.89111L8.29443 9.80664L8.36035 8.19531V4.43799C8.36035 4.10107 8.12598 3.8667 7.78906 3.8667Z" fill="url(#paint0_linear_351_4379)"/>
<defs>
<linearGradient id="paint0_linear_351_4379" x1="8" y1="-2" x2="8" y2="18" gradientUnits="userSpaceOnUse">
<stop stop-color="#3076FF"/>
<stop offset="1" stop-color="#1D49E5"/>
</linearGradient>
</defs>
</svg>
